<svg width="15" height="16" viewBox="0 0 15 16" fill="none" xmlns="http://www.w3.org/2000/svg">
<path d="M14.5 15.5H1C0.734784 15.5 0.48043 15.3946 0.292893 15.2071C0.105357 15.0196 0 14.7652 0 14.5V1C0 0.867392 0.0526784 0.740215 0.146447 0.646447C0.240215 0.552678 0.367392 0.5 0.5 0.5C0.632608 0.5 0.759785 0.552678 0.853553 0.646447C0.947322 0.740215 1 0.867392 1 1V14.5H14.5C14.6326 14.5 14.7598 14.5527 14.8536 14.6464C14.9473 14.7402 15 14.8674 15 15C15 15.1326 14.9473 15.2598 14.8536 15.3536C14.7598 15.4473 14.6326 15.5 14.5 15.5Z" fill="#5B5656"/>
<path d="M4.375 13.5H3.125C2.82663 13.5 2.54048 13.3815 2.3295 13.1705C2.11853 12.9595 2 12.6734 2 12.375V7.625C2 7.32663 2.11853 7.04048 2.3295 6.8295C2.54048 6.61853 2.82663 6.5 3.125 6.5H4.375C4.67337 6.5 4.95952 6.61853 5.1705 6.8295C5.38147 7.04048 5.5 7.32663 5.5 7.625V12.375C5.5 12.6734 5.38147 12.9595 5.1705 13.1705C4.95952 13.3815 4.67337 13.5 4.375 13.5Z" fill="#5B5656"/>
<path d="M8.875 13.5H7.625C7.32663 13.5 7.04048 13.3815 6.8295 13.1705C6.61853 12.9595 6.5 12.6734 6.5 12.375V6.125C6.5 5.82663 6.61853 5.54048 6.8295 5.3295C7.04048 5.11853 7.32663 5 7.625 5H8.875C9.17337 5 9.45952 5.11853 9.6705 5.3295C9.88147 5.54048 10 5.82663 10 6.125V12.375C10 12.6734 9.88147 12.9595 9.6705 13.1705C9.45952 13.3815 9.17337 13.5 8.875 13.5Z" fill="#5B5656"/>
<path d="M13.3633 13.5H12.1133C11.8149 13.5 11.5288 13.3815 11.3178 13.1705C11.1068 12.9595 10.9883 12.6734 10.9883 12.375V4.125C10.9883 3.82663 11.1068 3.54048 11.3178 3.3295C11.5288 3.11853 11.8149 3 12.1133 3H13.3633C13.6616 3 13.9478 3.11853 14.1588 3.3295C14.3698 3.54048 14.4883 3.82663 14.4883 4.125V12.375C14.4883 12.6734 14.3698 12.9595 14.1588 13.1705C13.9478 13.3815 13.6616 13.5 13.3633 13.5Z" fill="#5B5656"/>
</svg>
