<svg width="10" height="8" viewBox="0 0 10 8" fill="none" xmlns="http://www.w3.org/2000/svg">
    <path d="M3.43005 5.09006L7.72005 0.79006C7.90741 0.603809 8.16087 0.499268 8.42505 0.499268C8.68924 0.499268 8.94269 0.603809 9.13005 0.79006C9.22378 0.883023 9.29817 0.993624 9.34894 1.11548C9.39971 1.23734 9.42585 1.36805 9.42585 1.50006C9.42585 1.63207 9.39971 1.76278 9.34894 1.88464C9.29817 2.0065 9.22378 2.1171 9.13005 2.21006L4.13005 7.21006C3.94379 7.3948 3.69239 7.49896 3.43005 7.50006C3.29845 7.50082 3.16798 7.4756 3.04614 7.42583C2.92431 7.37607 2.81349 7.30274 2.72005 7.21006L0.370051 4.85006C0.26537 4.76041 0.180349 4.6501 0.120326 4.52603C0.0603026 4.40197 0.0265725 4.26683 0.021253 4.12911C0.0159335 3.99139 0.0391394 3.85406 0.089414 3.72574C0.139689 3.59741 0.215946 3.48086 0.313401 3.38341C0.410856 3.28595 0.527403 3.2097 0.655728 3.15942C0.784053 3.10915 0.921386 3.08594 1.0591 3.09126C1.19682 3.09658 1.33196 3.13031 1.45602 3.19033C1.58009 3.25036 1.6904 3.33538 1.78005 3.44006L3.43005 5.09006Z" fill="white"/>
</svg>