<svg width="27" height="27" viewBox="0 0 27 27" fill="none" xmlns="http://www.w3.org/2000/svg">
<path d="M22.5749 13.859H13.0986V4.3848C13.0986 3.85373 12.6722 3.42749 12.1412 3.42749C5.86136 3.42749 0.75 8.5377 0.75 14.8163C0.75 21.095 5.86136 26.2052 12.1412 26.2052C18.421 26.2052 23.5324 21.095 23.5324 14.8163C23.5324 14.2905 23.1007 13.859 22.5749 13.859ZM12.1412 24.2905C6.91823 24.2905 2.66492 20.0381 2.66492 14.8163C2.66492 9.91554 6.40489 5.87015 11.1837 5.39071V14.8163C11.1837 15.3474 11.6101 15.7736 12.1412 15.7736H21.5688C21.0893 20.5513 17.0431 24.2905 12.1412 24.2905Z" fill="#5B5656" stroke="#5B5656" stroke-width="0.5"/>
<path d="M26.0042 12.1022L26.0042 12.102C25.9937 9.38635 24.9988 6.77073 23.2038 4.73403L23.2038 4.73397C21.0772 2.32888 18.0241 0.95 14.8131 0.95C14.3924 0.95 14.0556 1.28674 14.0556 1.70731V12.1388C14.0556 12.5594 14.3924 12.8962 14.8131 12.8962H25.2468C25.6674 12.8962 26.0042 12.5594 26.0042 12.1388V12.1388V12.1387V12.1387V12.1386V12.1385V12.1385V12.1384V12.1383V12.1383V12.1382V12.1382V12.1381V12.138V12.138V12.1379V12.1379V12.1378V12.1377V12.1377V12.1376V12.1376V12.1375V12.1374V12.1374V12.1373V12.1372V12.1372V12.1371V12.1371V12.137V12.1369V12.1369V12.1368V12.1368V12.1367V12.1366V12.1366V12.1365V12.1364V12.1364V12.1363V12.1363V12.1362V12.1361V12.1361V12.136V12.136V12.1359V12.1358V12.1358V12.1357V12.1356V12.1356V12.1355V12.1355V12.1354V12.1353V12.1353V12.1352V12.1351V12.1351V12.135V12.135V12.1349V12.1348V12.1348V12.1347V12.1347V12.1346V12.1345V12.1345V12.1344V12.1343V12.1343V12.1342V12.1342V12.1341V12.134V12.134V12.1339V12.1338V12.1338V12.1337V12.1337V12.1336V12.1335V12.1335V12.1334V12.1333V12.1333V12.1332V12.1332V12.1331V12.133V12.133V12.1329V12.1328V12.1328V12.1327V12.1327V12.1326V12.1325V12.1325V12.1324V12.1323V12.1323V12.1322V12.1322V12.1321V12.132V12.132V12.1319V12.1318V12.1318V12.1317V12.1317V12.1316V12.1315V12.1315V12.1314V12.1313V12.1313V12.1312V12.1312V12.1311V12.131V12.131V12.1309V12.1308V12.1308V12.1307V12.1306V12.1306V12.1305V12.1305V12.1304V12.1303V12.1303V12.1302V12.1301V12.1301V12.13V12.1299V12.1299V12.1298V12.1298V12.1297V12.1296V12.1296V12.1295V12.1294V12.1294V12.1293V12.1292V12.1292V12.1291V12.129V12.129V12.1289V12.1289V12.1288V12.1287V12.1287V12.1286V12.1285V12.1285V12.1284V12.1283V12.1283V12.1282V12.1281V12.1281V12.128V12.128V12.1279V12.1278V12.1278V12.1277V12.1276V12.1276V12.1275V12.1274V12.1274V12.1273V12.1272V12.1272V12.1271V12.127V12.127V12.1269V12.1268V12.1268V12.1267V12.1266V12.1266V12.1265V12.1264V12.1264V12.1263V12.1262V12.1262V12.1261V12.126V12.126V12.1259V12.1259V12.1258V12.1257V12.1257V12.1256V12.1255V12.1255V12.1254V12.1253V12.1253V12.1252V12.1251V12.1251V12.125V12.1249V12.1248V12.1248V12.1247V12.1246V12.1246V12.1245V12.1244V12.1244V12.1243V12.1242V12.1242V12.1241V12.124V12.124V12.1239V12.1238V12.1238V12.1237V12.1236V12.1236V12.1235V12.1234V12.1234V12.1233V12.1232V12.1232V12.1231V12.123V12.1229V12.1229V12.1228V12.1227V12.1227V12.1226V12.1225V12.1225V12.1224V12.1223V12.1223V12.1222V12.1221V12.1221V12.122V12.1219V12.1218V12.1218V12.1217V12.1216V12.1216V12.1215V12.1214V12.1214V12.1213V12.1212V12.1211V12.1211V12.121V12.1209V12.1209V12.1208V12.1207V12.1207V12.1206V12.1205V12.1204V12.1204V12.1203V12.1202V12.1202V12.1201V12.12V12.1199V12.1199V12.1198V12.1197V12.1197V12.1196V12.1195V12.1194V12.1194V12.1193V12.1192V12.1192V12.1191V12.119V12.1189V12.1189V12.1188V12.1187V12.1186V12.1186V12.1185V12.1184V12.1184V12.1183V12.1182V12.1181V12.1181V12.118V12.1179V12.1178V12.1178V12.1177V12.1176V12.1175V12.1175V12.1174V12.1173V12.1172V12.1172V12.1171V12.117V12.117V12.1169V12.1168V12.1167V12.1167V12.1166V12.1165V12.1164V12.1164V12.1163V12.1162V12.1161V12.1161V12.116V12.1159V12.1158V12.1158V12.1157V12.1156V12.1155V12.1154V12.1154V12.1153V12.1152V12.1151V12.1151V12.115V12.1149V12.1148V12.1148V12.1147V12.1146V12.1145V12.1145V12.1144V12.1143V12.1142V12.1141V12.1141V12.114V12.1139V12.1138V12.1138V12.1137V12.1136V12.1135V12.1134V12.1134V12.1133V12.1132V12.1131V12.1131V12.113V12.1129V12.1128V12.1127V12.1127V12.1126V12.1125V12.1124V12.1123V12.1123V12.1122V12.1121V12.112V12.1119V12.1119V12.1118V12.1117V12.1116V12.1115V12.1115V12.1114V12.1113V12.1112V12.1111V12.1111V12.111V12.1109V12.1108V12.1107V12.1107V12.1106V12.1105V12.1104V12.1103V12.1102V12.1102V12.1101V12.11V12.1099V12.1098V12.1097V12.1097V12.1096V12.1095V12.1094V12.1093V12.1093V12.1092V12.1091V12.109V12.1089V12.1088V12.1088V12.1087V12.1086V12.1085V12.1084V12.1083V12.1082V12.1082V12.1081V12.108V12.1079V12.1078V12.1077V12.1077V12.1076V12.1075V12.1074V12.1073V12.1072V12.1071V12.1071V12.107V12.1069V12.1068V12.1067V12.1066V12.1065V12.1065V12.1064V12.1063V12.1062V12.1061V12.106V12.1059V12.1058V12.1058V12.1057V12.1056V12.1055V12.1054V12.1053V12.1052V12.1051V12.1051V12.105V12.1049V12.1048V12.1047V12.1046V12.1045V12.1044V12.1043V12.1043V12.1042V12.1041V12.104V12.1039V12.1038V12.1037V12.1036V12.1035V12.1034V12.1034V12.1033V12.1032V12.1031V12.103V12.1029V12.1028V12.1027V12.1026V12.1025V12.1024V12.1023V12.1023V12.1022ZM22.065 5.74325L22.0651 5.74331C23.4607 7.3195 24.2926 9.30054 24.4591 11.3868H15.5705V2.49997C18.0633 2.69494 20.3982 3.85426 22.065 5.74325Z" fill="#5B5656" stroke="#5B5656" stroke-width="0.1"/>
</svg>
