<svg width="23" height="23" viewBox="0 0 23 23" fill="none" xmlns="http://www.w3.org/2000/svg">
<path d="M11.3486 11.109V11.609H11.8486H21.5749C21.6866 11.609 21.7824 11.7049 21.7824 11.8163C21.7824 17.6806 17.0069 22.4552 11.1412 22.4552C5.27542 22.4552 0.5 17.6806 0.5 11.8163C0.5 5.95206 5.27542 1.17749 11.1412 1.17749C11.2582 1.17749 11.3486 1.26809 11.3486 1.3848V11.109ZM10.9337 2.11831V1.58113L10.3979 1.61959C5.10216 1.99975 0.914919 6.42812 0.914919 11.8163C0.914919 17.4524 5.50416 22.0405 11.1412 22.0405C16.5303 22.0405 20.9597 17.8543 21.34 12.5595L21.3784 12.0236H20.8412H11.1412C11.0242 12.0236 10.9337 11.933 10.9337 11.8163V2.11831Z" fill="#5B5656" stroke="#5B5656"/>
</svg>
