<svg width="20" height="21" viewBox="0 0 20 21" fill="none" xmlns="http://www.w3.org/2000/svg">
<path d="M18.9458 3.7125H15.6618V1.65C15.6618 0.739922 14.9254 0 14.0198 0H5.8096C4.90392 0 4.16757 0.739922 4.16757 1.65V3.7125H0.883515C0.429391 3.7125 0.0625 4.08117 0.0625 4.5375V5.3625C0.0625 5.47594 0.154864 5.56875 0.267754 5.56875H1.81742L2.45114 19.0523C2.49219 19.9315 3.21571 20.625 4.0906 20.625H15.7388C16.6162 20.625 17.3372 19.9341 17.3782 19.0523L18.0119 5.56875H19.5616C19.6745 5.56875 19.7669 5.47594 19.7669 5.3625V4.5375C19.7669 4.08117 19.4 3.7125 18.9458 3.7125ZM6.01486 1.85625H13.8145V3.7125H6.01486V1.85625ZM15.5412 18.7687H4.28816L3.66727 5.56875H16.1621L15.5412 18.7687Z" fill="#5B5656"/>
</svg>
