<svg width="22" height="22" viewBox="0 0 22 22" fill="none" xmlns="http://www.w3.org/2000/svg">
    <path d="M18.7319 8H9.86497C8.77673 8 7.89453 8.89543 7.89453 10V19C7.89453 20.1046 8.77673 21 9.86497 21H18.7319C19.8202 21 20.7024 20.1046 20.7024 19V10C20.7024 8.89543 19.8202 8 18.7319 8Z" stroke="#5B5656" stroke-width="2" stroke-linecap="round" stroke-linejoin="round"/>
    <path d="M3.95565 14H2.97044C2.44784 14 1.94666 13.7893 1.57713 13.4142C1.2076 13.0391 1 12.5304 1 12V3C1 2.46957 1.2076 1.96086 1.57713 1.58579C1.94666 1.21071 2.44784 1 2.97044 1H11.8374C12.36 1 12.8612 1.21071 13.2307 1.58579C13.6002 1.96086 13.8078 2.46957 13.8078 3V4" stroke="#5B5656" stroke-width="2" stroke-linecap="round" stroke-linejoin="round"/>
</svg>
