<svg width="60" height="60" viewBox="0 0 60 60" fill="none" xmlns="http://www.w3.org/2000/svg">
<path d="M59.9107 29.665C59.9107 36.4563 57.548 43.0411 53.2188 48.3153C48.8896 53.5894 42.8571 57.2321 36.1329 58.6327C29.4088 60.0332 22.4018 59.1064 16.287 56.0076C10.1722 52.9088 5.32136 47.8264 2.54796 41.6128C-0.225441 35.3992 -0.752782 28.4321 1.05436 21.8799C2.86151 15.3276 6.89325 9.58865 12.4735 5.62529C18.0538 1.66192 24.8433 -0.284828 31.7034 0.111486C38.5636 0.5078 45.0773 3.22308 50.1523 7.802L49.3161 8.70721C44.4512 4.31787 38.2072 1.71502 31.6311 1.33511C25.0549 0.955206 18.5466 2.82135 13.1973 6.62062C7.84811 10.4199 3.98329 15.9213 2.25097 22.2022C0.518647 28.4832 1.02415 35.1618 3.68273 41.1181C6.3413 47.0745 10.9913 51.9464 16.8529 54.9169C22.7145 57.8874 29.4314 58.7759 35.8772 57.4333C42.3229 56.0908 48.1056 52.5988 52.2556 47.5431C56.4056 42.4873 58.6705 36.1751 58.6705 29.665H59.9107Z" fill="#A4D4AE"/>
</svg>
