<svg width="61" height="61" viewBox="0 0 61 61" fill="none" xmlns="http://www.w3.org/2000/svg">
<path d="M25.0161 31.3848H3.92437C3.39913 31.642 3.26782 32.2421 3.26782 32.51C3.34989 40.7881 8.84851 46.8963 9.6692 47.5392C10.3257 48.0536 11.0917 47.7536 11.3926 47.5392C15.6055 43.36 24.3431 34.68 25.5906 33.394C26.838 32.1081 25.7273 31.5187 25.0161 31.3848Z" fill="#A4D4AE"/>
<path d="M27.0281 34.1581L12.0595 48.8739C11.8738 49.423 12.2171 49.9405 12.412 50.1307C18.4918 55.9492 26.8372 56.4484 27.8873 56.3321C28.7274 56.2391 29.0527 55.4917 29.1104 55.1297C29.0602 49.2239 28.9474 36.9665 28.8973 35.1834C28.8472 33.4003 27.6303 33.7569 27.0281 34.1581Z" fill="#A4D4AE"/>
<path d="M30.4415 34.9653L30.41 55.6501C30.6777 56.1656 31.3042 56.2953 31.5839 56.2957C40.2279 56.2278 46.6141 50.8446 47.2867 50.0407C47.8248 49.3976 47.5126 48.646 47.2893 48.3506C42.9317 44.2126 33.8813 35.6303 32.5404 34.405C31.1995 33.1796 30.5824 34.268 30.4415 34.9653Z" fill="#A4D4AE"/>
<path d="M33.4313 33.2267L48.5236 47.6956C49.0873 47.8679 49.6196 47.5194 49.8152 47.3236C55.8029 41.217 56.3297 32.9807 56.2121 31.9478C56.1179 31.1214 55.3507 30.8153 54.9788 30.7655C48.9118 30.93 36.3197 31.28 34.4878 31.3641C32.6559 31.4482 33.0202 32.6409 33.4313 33.2267Z" fill="#A4D4AE"/>
<path d="M59.9107 30.665C59.9107 37.4563 57.548 44.0411 53.2188 49.3153C48.8896 54.5894 42.8571 58.2321 36.1329 59.6327C29.4088 61.0332 22.4018 60.1064 16.287 57.0076C10.1722 53.9088 5.32136 48.8264 2.54796 42.6128C-0.225441 36.3992 -0.752782 29.4321 1.05436 22.8799C2.86151 16.3276 6.89325 10.5887 12.4735 6.62529C18.0538 2.66192 24.8433 0.715172 31.7034 1.11149C38.5636 1.5078 45.0773 4.22308 50.1523 8.802L49.3161 9.70721C44.4512 5.31787 38.2072 2.71502 31.6311 2.33511C25.0549 1.95521 18.5466 3.82135 13.1973 7.62062C7.84811 11.4199 3.98329 16.9213 2.25097 23.2022C0.518647 29.4832 1.02415 36.1618 3.68273 42.1181C6.3413 48.0745 10.9913 52.9464 16.8529 55.9169C22.7145 58.8874 29.4314 59.7759 35.8772 58.4333C42.3229 57.0908 48.1056 53.5988 52.2556 48.5431C56.4056 43.4873 58.6705 37.1751 58.6705 30.665H59.9107Z" fill="#A4D4AE"/>
<path d="M24.8104 29.6135L4.31333 29.6445C3.80252 29.3881 3.67401 28.7882 3.67361 28.5203C3.74098 20.242 9.07544 14.1258 9.87203 13.4816C10.5093 12.9663 11.2541 13.2652 11.5469 13.4791C15.6472 17.6521 24.1515 26.3193 25.3657 27.6034C26.5799 28.8875 25.5014 29.4785 24.8104 29.6135Z" fill="#A4D4AE"/>
<path d="M26.7615 26.8368L12.1929 12.1429C12.0116 11.5942 12.3445 11.0761 12.5336 10.8857C18.4333 5.05818 26.5427 4.54677 27.5634 4.66146C28.3799 4.7532 28.6972 5.50013 28.7538 5.86212C28.7139 11.768 28.6225 24.0255 28.5765 25.8087C28.5305 27.5918 27.3474 27.2371 26.7615 26.8368Z" fill="#A4D4AE"/>
<path d="M30.0775 26.0249L30.016 5.34017C30.2754 4.82428 30.884 4.69366 31.1558 4.69284C39.5562 4.74795 45.7705 10.1217 46.4253 10.9246C46.9492 11.5669 46.6469 12.319 46.4303 12.6148C42.2018 16.7592 33.4193 25.3548 32.1181 26.5821C30.8169 27.8094 30.2155 26.722 30.0775 26.0249Z" fill="#A4D4AE"/>
</svg>
