<svg width="47" height="49" viewBox="0 0 47 49" fill="none" xmlns="http://www.w3.org/2000/svg">
<path d="M25.7765 16.905H21.1392V12.0917H25.7765V16.905ZM25.7765 36.1583H21.1392V21.7183H25.7765V36.1583ZM23.4579 0.0583496C20.413 0.0583496 17.3979 0.680852 14.5848 1.89031C11.7717 3.09978 9.21568 4.87251 7.06262 7.10731C2.71433 11.6207 0.271484 17.7421 0.271484 24.125C0.271484 30.5079 2.71433 36.6293 7.06262 41.1427C9.21568 43.3775 11.7717 45.1502 14.5848 46.3597C17.3979 47.5692 20.413 48.1917 23.4579 48.1917C29.6073 48.1917 35.5049 45.6561 39.8531 41.1427C44.2014 36.6293 46.6443 30.5079 46.6443 24.125C46.6443 20.9645 46.0446 17.835 44.8793 14.9151C43.7141 11.9952 42.0062 9.3421 39.8531 7.10731C37.7001 4.87251 35.144 3.09978 32.3309 1.89031C29.5178 0.680852 26.5028 0.0583496 23.4579 0.0583496Z" fill="#9BADAE"/>
</svg>
