<svg width="60" height="60" viewBox="0 0 60 60" fill="none" xmlns="http://www.w3.org/2000/svg">
<path d="M24.6056 30.87H3.85966C3.34302 31.123 3.21387 31.7132 3.21387 31.9767C3.29459 40.1192 8.70307 46.1272 9.5103 46.7597C10.1561 47.2656 10.9095 46.9705 11.2055 46.7597C15.3493 42.6489 23.9437 34.1112 25.1707 32.8463C26.3977 31.5815 25.3052 31.0018 24.6056 30.87Z" fill="#A4D4AE"/>
<path d="M26.5849 33.5981L11.8616 48.0727C11.679 48.6128 12.0167 49.1218 12.2084 49.3089C18.1885 55.032 26.3971 55.523 27.43 55.4087C28.2563 55.3172 28.5764 54.582 28.6331 54.2259C28.5837 48.4169 28.4727 36.3605 28.4235 34.6066C28.3742 32.8528 27.1772 33.2035 26.5849 33.5981Z" fill="#A4D4AE"/>
<path d="M29.9421 34.3919L29.9111 54.7376C30.1745 55.2447 30.7906 55.3723 31.0658 55.3727C39.5681 55.3059 45.8496 50.011 46.5112 49.2203C47.0404 48.5877 46.7334 47.8484 46.5137 47.5578C42.2275 43.4876 33.3255 35.0461 32.0066 33.8408C30.6877 32.6355 30.0808 33.706 29.9421 34.3919Z" fill="#A4D4AE"/>
<path d="M32.8835 32.6821L47.7283 46.9138C48.2828 47.0833 48.8063 46.7405 48.9988 46.5479C54.8883 40.5414 55.4064 32.4401 55.2907 31.4241C55.1982 30.6113 54.4435 30.3102 54.0777 30.2612C48.1101 30.423 35.7245 30.7673 33.9226 30.85C32.1208 30.9327 32.4791 32.1059 32.8835 32.6821Z" fill="#A4D4AE"/>
<path d="M58.9286 30.1623C58.9286 36.8422 56.6046 43.3191 52.3464 48.5067C48.0881 53.6944 42.1545 57.2775 35.5406 58.655C28.9267 60.0326 22.0346 59.121 16.02 56.073C10.0054 53.025 5.23413 48.0259 2.50619 41.9142C-0.221745 35.8024 -0.740442 28.9496 1.03708 22.5047C2.8146 16.0599 6.78025 10.415 12.269 6.51661C17.7578 2.61822 24.436 0.703386 31.1837 1.0932C37.9314 1.48302 44.3384 4.15378 49.3302 8.65764L48.5076 9.54801C43.7225 5.23063 37.5809 2.67044 31.1125 2.29677C24.6442 1.92309 18.2425 3.75864 12.981 7.49563C7.71945 11.2326 3.91799 16.6438 2.21407 22.8218C0.510144 28.9998 1.00736 35.5689 3.62235 41.4276C6.23734 47.2863 10.8111 52.0784 16.5766 55.0002C22.3422 57.922 28.9489 58.7959 35.289 57.4753C41.6291 56.1548 47.317 52.7201 51.399 47.7472C55.4809 42.7743 57.7086 36.5656 57.7086 30.1623H58.9286Z" fill="#A4D4AE"/>
<path d="M24.4039 29.1279L4.24282 29.1585C3.74037 28.9063 3.61397 28.3162 3.61358 28.0527C3.67985 19.9101 8.92686 13.8941 9.71039 13.2605C10.3372 12.7536 11.0698 13.0476 11.3578 13.258C15.3909 17.3627 23.7558 25.8877 24.9501 27.1508C26.1444 28.4138 25.0836 28.9951 24.4039 29.1279Z" fill="#A4D4AE"/>
<path d="M26.3228 26.3969L11.9929 11.9439C11.8146 11.4042 12.1421 10.8946 12.328 10.7073C18.131 4.9753 26.1075 4.47228 27.1114 4.58508C27.9146 4.67532 28.2267 5.41 28.2824 5.76606C28.2431 11.5751 28.1533 23.6317 28.108 25.3856C28.0628 27.1395 26.899 26.7906 26.3228 26.3969Z" fill="#A4D4AE"/>
<path d="M29.5849 25.5981L29.5243 5.25247C29.7795 4.74503 30.3781 4.61656 30.6455 4.61575C38.9082 4.66996 45.0206 9.95565 45.6647 10.7454C46.18 11.3771 45.8827 12.1169 45.6696 12.4079C41.5104 16.4843 32.8719 24.939 31.592 26.1462C30.3121 27.3534 29.7207 26.2838 29.5849 25.5981Z" fill="#A4D4AE"/>
</svg>
