<svg width="86" height="26" viewBox="0 0 86 26" fill="none" xmlns="http://www.w3.org/2000/svg">
<path d="M14.596 21.788C15.22 21.788 15.736 21.992 16.144 22.4C16.576 22.784 16.792 23.288 16.792 23.912C16.792 24.512 16.576 25.016 16.144 25.424C15.736 25.808 15.22 26 14.596 26H2.896C2.272 26 1.744 25.796 1.312 25.388C0.904 24.956 0.7 24.428 0.7 23.804V2.996C0.7 2.372 0.916 1.856 1.348 1.448C1.78 1.016 2.332 0.799998 3.004 0.799998C3.604 0.799998 4.12 1.016 4.552 1.448C4.984 1.856 5.2 2.372 5.2 2.996V21.788H14.596ZM25.4148 23.804C25.4148 24.428 25.1868 24.956 24.7308 25.388C24.2748 25.796 23.7468 26 23.1468 26C22.4988 26 21.9588 25.796 21.5268 25.388C21.1188 24.956 20.9148 24.428 20.9148 23.804V2.996C20.9148 2.372 21.1308 1.856 21.5628 1.448C21.9948 1.016 22.5468 0.799998 23.2188 0.799998C23.8188 0.799998 24.3348 1.016 24.7668 1.448C25.1988 1.856 25.4148 2.372 25.4148 2.996V23.804ZM52.6809 0.763999C53.2809 0.763999 53.7969 0.979999 54.2289 1.412C54.6849 1.82 54.9129 2.336 54.9129 2.96V23.804C54.9129 24.428 54.7089 24.956 54.3009 25.388C53.8929 25.796 53.3529 26 52.6809 26C52.0089 26 51.4569 25.796 51.0249 25.388C50.6169 24.98 50.4129 24.452 50.4129 23.804V9.296L44.4729 18.368C44.2329 18.656 43.9569 18.896 43.6449 19.088C43.3329 19.256 43.0089 19.328 42.6729 19.304C42.3609 19.328 42.0489 19.256 41.7369 19.088C41.4249 18.896 41.1489 18.656 40.9089 18.368L34.9689 8.972V23.804C34.9689 24.452 34.7769 24.98 34.3929 25.388C34.0089 25.796 33.5049 26 32.8809 26C32.2809 26 31.7889 25.796 31.4049 25.388C31.0209 24.956 30.8289 24.428 30.8289 23.804V2.96C30.8289 2.36 31.0449 1.844 31.4769 1.412C31.9329 0.979999 32.4729 0.763999 33.0969 0.763999C33.4569 0.763999 33.8169 0.859999 34.1769 1.052C34.5369 1.22 34.8129 1.448 35.0049 1.736L42.8529 13.796L50.9169 1.736C51.1089 1.448 51.3609 1.22 51.6729 1.052C52.0089 0.859999 52.3449 0.763999 52.6809 0.763999ZM74.581 21.86C75.205 21.86 75.721 22.076 76.129 22.508C76.561 22.916 76.777 23.396 76.777 23.948C76.777 24.548 76.561 25.04 76.129 25.424C75.721 25.808 75.205 26 74.581 26H62.521C61.897 26 61.369 25.796 60.937 25.388C60.529 24.956 60.325 24.428 60.325 23.804V2.996C60.325 2.372 60.529 1.856 60.937 1.448C61.369 1.016 61.897 0.799998 62.521 0.799998H74.581C75.205 0.799998 75.721 1.004 76.129 1.412C76.561 1.796 76.777 2.3 76.777 2.924C76.777 3.524 76.573 4.016 76.165 4.4C75.757 4.76 75.229 4.94 74.581 4.94H64.825V11.06H72.961C73.585 11.06 74.101 11.264 74.509 11.672C74.941 12.056 75.157 12.56 75.157 13.184C75.157 13.784 74.953 14.276 74.545 14.66C74.137 15.02 73.609 15.2 72.961 15.2H64.825V21.86H74.581ZM82.4746 25.964C81.7786 25.964 81.2386 25.784 80.8546 25.424C80.4946 25.04 80.3146 24.5 80.3146 23.804V23.192C80.3146 22.496 80.4946 21.968 80.8546 21.608C81.2386 21.224 81.7786 21.032 82.4746 21.032H82.9426C83.6386 21.032 84.1666 21.224 84.5266 21.608C84.9106 21.968 85.1026 22.496 85.1026 23.192V23.804C85.1026 24.5 84.9106 25.04 84.5266 25.424C84.1666 25.784 83.6386 25.964 82.9426 25.964H82.4746Z" fill="#A4D4AE"/>
</svg>
