<svg width="19" height="5" viewBox="0 0 19 5" fill="none" xmlns="http://www.w3.org/2000/svg">
<path d="M16.5727 0C15.6001 0 14.7787 0.542919 14.4104 1.31351H11.6533C11.285 0.542919 10.4636 0 9.49102 0C8.51848 0 7.69701 0.542919 7.32876 1.31351H4.57164C4.20339 0.542919 3.38192 0 2.40938 0C1.78332 0 1.18291 0.230646 0.740217 0.641199C0.297528 1.05175 0.0488281 1.60858 0.0488281 2.18919C0.0488281 2.7698 0.297528 3.32663 0.740217 3.73718C1.18291 4.14773 1.78332 4.37838 2.40938 4.37838C3.38192 4.37838 4.20339 3.83546 4.57164 3.06486H7.32876C7.69701 3.83546 8.51848 4.37838 9.49102 4.37838C10.4636 4.37838 11.285 3.83546 11.6533 3.06486H14.4104C14.7787 3.83546 15.6001 4.37838 16.5727 4.37838C17.1987 4.37838 17.7991 4.14773 18.2418 3.73718C18.6845 3.32663 18.9332 2.7698 18.9332 2.18919C18.9332 1.60858 18.6845 1.05175 18.2418 0.641199C17.7991 0.230646 17.1987 0 16.5727 0Z" fill="#8C8989"/>
</svg>
