                    <svg width="17" height="16" viewBox="0 0 17 16" fill="none" xmlns="http://www.w3.org/2000/svg">
                        <path d="M5.6 11.5024L4.4 10.3165C3.6 10.1189 2.4 10.2177 1.7 11.3048C0.9 12.3918 1.4 14.0718 0 15.8506C0 15.8506 3.5 15.8506 4.8 14.5659C6 13.38 6 12.3918 5.8 11.6012L5.6 11.5024Z" fill="#5B5656"/>
                        <path d="M5.80039 8.04369C5.60039 8.34016 5.30039 8.73546 5.10039 9.03193C5.10039 9.22958 5.00039 9.3284 4.90039 9.42722L6.40039 10.9096C6.50039 10.8108 6.70039 10.7119 6.80039 10.6131C7.10039 10.4155 7.50039 10.2178 7.80039 9.92134C8.20039 9.92134 8.40039 9.72369 8.60039 9.52605L6.40039 7.35193C6.20039 7.54958 6.00039 7.74722 5.80039 8.04369Z" fill="#5B5656"/>
                        <path d="M15.7992 0.236571C15.4992 -0.0598992 15.0992 -0.0598992 14.7992 0.137748C14.7992 0.137748 11.7992 2.60834 8.89922 5.17775C8.49922 5.57304 8.19922 5.86951 7.79922 6.16598C7.59922 6.36363 7.39922 6.56128 7.19922 6.6601L9.29922 8.7354C9.49922 8.53775 9.69922 8.3401 9.79922 8.04363C10.0992 7.64834 10.3992 7.35187 10.6992 6.95657C13.1992 3.99187 15.7992 1.12598 15.7992 1.12598C16.0992 0.928336 16.0992 0.533042 15.7992 0.236571Z" fill="#5B5656"/>
                    </svg>