<svg width="15" height="16" viewBox="0 0 15 16" fill="none" xmlns="http://www.w3.org/2000/svg">
<path d="M7.5 0.5C3.3645 0.5 0 3.8645 0 8C0 12.1355 3.3645 15.5 7.5 15.5C11.6355 15.5 15 12.1355 15 8C15 3.8645 11.6355 0.5 7.5 0.5ZM13.4482 7.25H8.25V2.05175C9.56987 2.22001 10.7965 2.8218 11.7374 3.76265C12.6782 4.70349 13.28 5.93013 13.4482 7.25ZM1.5 8C1.5 4.946 3.79575 2.423 6.75 2.05175V8C6.75222 8.11443 6.7807 8.22682 6.83325 8.3285C6.8445 8.351 6.84975 8.37575 6.864 8.39825L10.0155 13.4405C9.22782 13.8082 8.36926 13.9991 7.5 14C4.19175 14 1.5 11.3082 1.5 8ZM11.289 12.647L8.85375 8.75H13.4482C13.2559 10.2782 12.4827 11.6737 11.289 12.647Z" fill="#5B5656"/>
</svg>
