<svg width="17" height="13" viewBox="0 0 17 13" fill="none" xmlns="http://www.w3.org/2000/svg">
<path d="M6.2384 6.5C6.2384 7.09226 6.46845 7.66027 6.87796 8.07906C7.28747 8.49785 7.84288 8.73313 8.42201 8.73313C9.00114 8.73313 9.55655 8.49785 9.96606 8.07906C10.3756 7.66027 10.6056 7.09226 10.6056 6.5C10.6056 5.90774 10.3756 5.33973 9.96606 4.92094C9.55655 4.50215 9.00114 4.26687 8.42201 4.26687C7.84288 4.26687 7.28747 4.50215 6.87796 4.92094C6.46845 5.33973 6.2384 5.90774 6.2384 6.5ZM16.8874 5.98558C15.0391 2.00383 12.2453 0 8.49999 0C4.75276 0 1.96086 2.00383 0.112583 5.98758C0.0384484 6.14812 0 6.32345 0 6.501C0 6.67854 0.0384484 6.85388 0.112583 7.01442C1.96086 10.9962 4.75471 13 8.49999 13C12.2472 13 15.0391 10.9962 16.8874 7.01242C17.0375 6.68942 17.0375 6.31457 16.8874 5.98558ZM8.42201 10.0092C6.52694 10.0092 4.99062 8.43804 4.99062 6.5C4.99062 4.56196 6.52694 2.9908 8.42201 2.9908C10.3171 2.9908 11.8534 4.56196 11.8534 6.5C11.8534 8.43804 10.3171 10.0092 8.42201 10.0092Z" fill="#5B5656" fill-opacity="0.8"/>
</svg>
