<svg width="22" height="14" viewBox="0 0 22 14" fill="none" xmlns="http://www.w3.org/2000/svg">
<path d="M1.15889 10.1208C1.0229 9.74543 0.95832 9.19325 0.927456 8.70841L1.15889 10.1208ZM1.15889 10.1208C1.21476 10.279 1.31579 10.4148 1.45212 10.5081M1.15889 10.1208L21.347 8.71275C21.318 9.19697 21.2572 9.74754 21.1289 10.1197L21.1287 10.1204C21.0721 10.2808 20.9651 10.4157 20.8357 10.5078L20.8346 10.5086L20.8326 10.51C20.6499 10.6363 17.0861 13.0999 11.1437 13.0999C5.19345 13.0999 1.62754 10.6351 1.45212 10.5081M1.45212 10.5081C1.45169 10.5078 1.45127 10.5075 1.45088 10.5072L1.5097 10.4263M1.45212 10.5081C1.45254 10.5084 1.45295 10.5087 1.45336 10.509L1.5097 10.4263M1.5097 10.4263C1.65776 10.534 5.20636 12.9999 11.1437 12.9999C17.0555 12.9999 20.599 10.5499 20.7756 10.4278L20.7777 10.4263M1.5097 10.4263H20.7777M20.7777 10.4263C20.8913 10.3456 20.985 10.2271 21.0344 10.0871L20.7777 10.4263ZM14.0588 2.36478C13.715 2.10039 13.6335 1.58959 13.8729 1.21902C14.1148 0.844732 14.5954 0.74689 14.9458 1.01635L14.9482 1.01819L14.9481 1.01822L14.9487 1.01864C14.9529 1.02186 14.9812 1.04335 15.0337 1.08123C15.0898 1.12172 15.1716 1.17959 15.2763 1.25061C15.4857 1.39266 15.7864 1.58719 16.1557 1.80049C16.895 2.22746 17.9061 2.72795 19.008 3.03448L19.0155 3.03656L19.0154 3.03684C19.0202 3.03858 19.0264 3.04055 19.0357 3.04343L19.0366 3.04372C19.0446 3.0462 19.0551 3.04949 19.0648 3.053L19.0655 3.05325C20.1732 3.46534 20.7416 4.31716 21.0354 5.19207C21.3263 6.05827 21.3512 6.95584 21.366 7.48924L21.3663 7.49997L21.3664 7.50274C21.3664 7.52384 21.3674 7.54414 21.3687 7.56652L21.3688 7.56943C21.37 7.59025 21.3713 7.61362 21.3713 7.63735V7.63738V7.63741V7.63744V7.63747V7.6375V7.63754V7.63757V7.6376V7.63763V7.63766V7.63769V7.63772V7.63776V7.63779V7.63782V7.63785V7.63788V7.63791V7.63795V7.63798V7.63801V7.63804V7.63807V7.6381V7.63813V7.63817V7.6382V7.63823V7.63826V7.63829V7.63832V7.63836V7.63839V7.63842V7.63845V7.63848V7.63851V7.63854V7.63858V7.63861V7.63864V7.63867V7.6387V7.63873V7.63877V7.6388V7.63883V7.63886V7.63889V7.63892V7.63895V7.63899V7.63902V7.63905V7.63908V7.63911V7.63914V7.63918V7.63921V7.63924V7.63927V7.6393V7.63933V7.63937V7.6394V7.63943V7.63946V7.63949V7.63952V7.63955V7.63959V7.63962V7.63965V7.63968V7.63971V7.63974V7.63978V7.63981V7.63984V7.63987V7.6399V7.63993V7.63996V7.64V7.64003V7.64006V7.64009V7.64012V7.64015V7.64019V7.64022V7.64025V7.64028V7.64031V7.64034V7.64037V7.64041V7.64044V7.64047V7.6405V7.64053V7.64056V7.6406V7.64063V7.64066V7.64069V7.64072V7.64075V7.64078V7.64082V7.64085V7.64088V7.64091V7.64094V7.64097V7.64101V7.64104V7.64107V7.6411V7.64113V7.64116V7.64119V7.64123V7.64126V7.64129V7.64132V7.64135V7.64138V7.64142V7.64145V7.64148V7.64151V7.64154V7.64157V7.6416V7.64164V7.64167V7.6417V7.64173V7.64176V7.64179V7.64183V7.64186V7.64189V7.64192V7.64195V7.64198V7.64201V7.64205V7.64208V7.64211V7.64214V7.64217V7.6422V7.64224V7.64227V7.6423V7.64233V7.64236V7.64239V7.64243V7.64246V7.64249V7.64252V7.64255V7.64258V7.64261V7.64265V7.64268V7.64271V7.64274V7.64277V7.6428V7.64284V7.64287V7.6429V7.64293V7.64296V7.64299V7.64302V7.64306V7.64309V7.64312V7.64315V7.64318V7.64321V7.64325V7.64328V7.64331V7.64334V7.64337V7.6434V7.64344V7.64347V7.6435V7.64353V7.64356V7.64359V7.64362V7.64366V7.64369V7.64372V7.64375V7.64378V7.64381V7.64385V7.64388V7.64391V7.64394V7.64397V7.644V7.64403V7.64407V7.6441V7.64413V7.64416V7.64419V7.64422V7.64426V7.64429V7.64432V7.64435V7.64438V7.64441V7.64444V7.64448V7.64451V7.64454V7.64457V7.6446V7.64463V7.64467V7.6447V7.64473V7.64476V7.64479V7.64482V7.64485V7.64489V7.64492V7.64495V7.64498V7.64501V7.64504V7.64508V7.64511V7.64514V7.64517V7.6452V7.64523V7.64527V7.6453V7.64533V7.64536V7.64539V7.64542V7.64545V7.64549V7.64552V7.64555V7.64558V7.64561V7.64564V7.64568V7.64571V7.64574V7.64577V7.6458V7.64583V7.64586V7.6459V7.64593V7.64596V7.64599V7.64602V7.64605V7.64609V7.64612V7.64615V7.64618V7.64621V7.64624V7.64627V7.64631V7.64634V7.64637V7.6464V7.64643V7.64646V7.6465V7.64653V7.64656V7.64659V7.64662V7.64665V7.64668V7.64672V7.64675V7.64678V7.64681V7.64684V7.64687V7.64691V7.64694V7.64697V7.647V7.64703V7.64706V7.64709V7.64713V7.64716V7.64719V7.64722V7.64725V7.64728V7.64732V7.64735V7.64738V7.64741V7.64744V7.64747V7.64751V7.64754V7.64757V7.6476V7.64763V7.64766V7.64769V7.64773V7.64776V7.64779V7.64782V7.64785V7.64788V7.64792V7.64795V7.64798V7.64801V7.64804V7.64807V7.6481V7.64814V7.64817V7.6482V7.64823V7.64826V7.64829V7.64833V7.64836V7.64839V7.64842V7.64845V7.64848V7.64851V7.64855V7.64858V7.64861V7.64864V7.64867V7.6487V7.64874V7.64877V7.6488V7.64883V7.64886V7.64889V7.64892V7.64896V7.64899V7.64902V7.64905V7.64908V7.64911V7.64915V7.64918V7.64921V7.64924V7.64927V7.6493V7.64933V7.64937V7.6494V7.64943V7.64946V7.64949V7.64952V7.64956V7.64959V7.64962V7.64965V7.64968V7.64971V7.64974V7.64978V7.64981V7.64984V7.64987V7.6499V7.64993V7.64997V7.65V7.65003V7.65006V7.65009V7.65012V7.65016V7.65019V7.65022V7.65025V7.65028V7.65031V7.65034V7.65038V7.65041V7.65044V7.65047V7.6505V7.65053V7.65057V7.6506V7.65063V7.65066V7.65069V7.65072V7.65075V7.65079V7.65082V7.65085V7.65088V7.65091V7.65094V7.65098V7.65101V7.65104V7.65107V7.6511V7.65113V7.65117V7.6512V7.65123V7.65126V7.65129V7.65132V7.65135V7.65139V7.65142V7.65145V7.65148V7.65151V7.65154V7.65158V7.65161V7.65164V7.65167V7.6517V7.65173V7.65176V7.6518V7.65183V7.65186V7.65189V7.65192V7.65195V7.65199V7.65202V7.65205V7.65208V7.65211V7.65214V7.65217V7.65221V7.65224V7.65227V7.6523V7.65233V7.65236V7.6524V7.65243V7.65246V7.65249V7.65252V7.65255V7.65258V7.65262L0.901343 7.64723V7.6472V7.64717V7.64714V7.64711V7.64707V7.64704V7.64701V7.64698V7.64695V7.64692V7.64688V7.64685V7.64682V7.64679V7.64676V7.64673V7.6467V7.64666V7.64663V7.6466V7.64657V7.64654V7.64651V7.64647V7.64644V7.64641V7.64638V7.64635V7.64632V7.64629V7.64625V7.64622V7.64619V7.64616V7.64613V7.6461V7.64606V7.64603V7.646V7.64597V7.64594V7.64591V7.64587V7.64584V7.64581V7.64578V7.64575V7.64572V7.64569V7.64565V7.64562V7.64559V7.64556V7.64553V7.6455V7.64546V7.64543V7.6454V7.64537V7.64534V7.64531V7.64528V7.64524V7.64521V7.64518V7.64515V7.64512V7.64509V7.64505V7.64502V7.64499V7.64496V7.64493V7.6449V7.64487V7.64483V7.6448V7.64477V7.64474V7.64471V7.64468V7.64464V7.64461V7.64458V7.64455V7.64452V7.64449V7.64446V7.64442V7.64439V7.64436V7.64433V7.6443V7.64427V7.64423V7.6442V7.64417V7.64414V7.64411V7.64408V7.64405V7.64401V7.64398V7.64395V7.64392V7.64389V7.64386V7.64382V7.64379V7.64376V7.64373V7.6437V7.64367V7.64364V7.6436V7.64357V7.64354V7.64351V7.64348V7.64345V7.64341V7.64338V7.64335V7.64332V7.64329V7.64326V7.64323V7.64319V7.64316V7.64313V7.6431V7.64307V7.64304V7.643V7.64297V7.64294V7.64291V7.64288V7.64285V7.64282V7.64278V7.64275V7.64272V7.64269V7.64266V7.64263V7.64259V7.64256V7.64253V7.6425V7.64247V7.64244V7.64241V7.64237V7.64234V7.64231V7.64228V7.64225V7.64222V7.64218V7.64215V7.64212V7.64209V7.64206V7.64203V7.64199V7.64196V7.64193V7.6419V7.64187V7.64184V7.64181V7.64177V7.64174V7.64171V7.64168V7.64165V7.64162V7.64158V7.64155V7.64152V7.64149V7.64146V7.64143V7.6414V7.64136V7.64133V7.6413V7.64127V7.64124V7.64121V7.64117V7.64114V7.64111V7.64108V7.64105V7.64102V7.64099V7.64095V7.64092V7.64089V7.64086V7.64083V7.6408V7.64076V7.64073V7.6407V7.64067V7.64064V7.64061V7.64058V7.64054V7.64051V7.64048V7.64045V7.64042V7.64039V7.64035V7.64032V7.64029V7.64026V7.64023V7.6402V7.64017V7.64013V7.6401V7.64007V7.64004V7.64001V7.63998V7.63994V7.63991V7.63988V7.63985V7.63982V7.63979V7.63976V7.63972V7.63969V7.63966V7.63963V7.6396V7.63957V7.63953V7.6395V7.63947V7.63944V7.63941V7.63938V7.63935V7.63931V7.63928V7.63925V7.63922V7.63919V7.63916V7.63912V7.63909V7.63906V7.63903V7.639V7.63897V7.63894V7.6389V7.63887V7.63884V7.63881V7.63878V7.63875V7.63871V7.63868V7.63865V7.63862V7.63859V7.63856V7.63853V7.63849V7.63846V7.63843V7.6384V7.63837V7.63834V7.6383V7.63827V7.63824V7.63821V7.63818V7.63815V7.63811V7.63808V7.63805V7.63802V7.63799V7.63796V7.63793V7.63789V7.63786V7.63783V7.6378V7.63777V7.63774V7.6377V7.63767V7.63764V7.63761V7.63758V7.63755V7.63752V7.63748V7.63745V7.63742V7.63739V7.63736V7.63733V7.63729V7.63726V7.63723V7.6372V7.63717V7.63714V7.63711V7.63707V7.63704V7.63701V7.63698V7.63695V7.63692V7.63688V7.63685V7.63682V7.63679V7.63676V7.63673V7.6367V7.63666V7.63663V7.6366V7.63657V7.63654V7.63651V7.63647V7.63644V7.63641V7.63638V7.63635V7.63632V7.63629V7.63625V7.63622V7.63619V7.63616V7.63613V7.6361V7.63606V7.63603V7.636V7.63597V7.63594V7.63591V7.63587V7.63584V7.63581V7.63578V7.63575V7.63572V7.63569V7.63565V7.63562V7.63559V7.63556V7.63553V7.6355V7.63546V7.63543V7.6354V7.63537V7.63534V7.63531V7.63528V7.63524V7.63521V7.63518V7.63515V7.63512V7.63509V7.63505V7.63502V7.63499V7.63496V7.63493V7.6349V7.63487V7.63483V7.6348V7.63477V7.63474V7.63471V7.63468V7.63464V7.63461V7.63458V7.63455V7.63452V7.63449V7.63446V7.63442V7.63439V7.63436V7.63433V7.6343V7.63427V7.63423V7.6342V7.63417V7.63414V7.63411V7.63408V7.63405V7.63401V7.63398V7.63395V7.63392V7.63389V7.63386V7.63382V7.63379V7.63376V7.63373V7.6337V7.63367V7.63364V7.6336V7.63357V7.63354V7.63351V7.63348V7.63345V7.63341V7.63338V7.63335V7.63332V7.63329V7.63326V7.63322V7.63319V7.63316V7.63313V7.6331V7.63307V7.63304V7.633V7.63297V7.63294V7.63291V7.63288V7.63285V7.63281V7.63278V7.63275V7.63272V7.63269V7.63266V7.63263V7.63259V7.63256V7.63253V7.6325V7.63247V7.63244V7.6324V7.63237V7.63234V7.63231V7.63228V7.63225V7.63222V7.63218V7.63215V7.63212V7.63209V7.63206V7.63203V7.63199V7.63196V7.6205L0.901993 7.62058C0.906165 7.58417 0.906279 7.54692 0.906279 7.49736V7.49457L0.906318 7.49457L0.906629 7.48341C0.921436 6.95259 0.946427 6.05664 1.23722 5.19073C1.53103 4.31585 2.09938 3.46277 3.20697 3.04794L3.20787 3.04761L3.20787 3.04761L3.2085 3.04738C3.22332 3.04199 3.24134 3.03544 3.26509 3.02896L3.2914 3.12544L3.26471 3.02907C4.37156 2.72253 5.38263 2.22207 6.12055 1.79515C6.4892 1.58186 6.78896 1.38735 6.99756 1.24532C7.10185 1.17431 7.18331 1.11646 7.23915 1.07597C7.29262 1.0372 7.32102 1.01551 7.32421 1.01307L7.32451 1.01284L7.32685 1.01093L7.32687 1.01097C7.67727 0.741507 8.15783 0.839347 8.39969 1.21364C8.63914 1.5842 8.55761 2.095 8.21379 2.3594L8.21055 2.36189L8.2105 2.36183C8.20684 2.36441 8.19942 2.36986 8.18839 2.37798C7.95143 2.55229 6.04298 3.95612 3.67851 4.62027M14.0588 2.36478C14.0588 2.36477 14.0588 2.36476 14.0588 2.36474L14.1198 2.28551L14.0588 2.36478ZM14.0588 2.36478C14.1462 2.43204 16.1201 3.93073 18.5941 4.62565M18.5941 4.62565C19.1306 4.83578 19.4323 5.25302 19.6056 5.77691C19.7806 6.30562 19.8214 6.93384 19.8387 7.54721V7.54856C19.8387 7.59334 19.8387 7.63949 19.8437 7.68642C19.8482 8.15311 19.8205 8.85697 19.7493 9.28252C18.902 9.79999 15.8094 11.4516 11.1388 11.4516C6.48757 11.4516 3.37608 9.79476 2.52332 9.27697C2.45145 8.84959 2.41949 8.14215 2.42896 7.67707L2.42898 7.67707V7.67504C2.42898 7.65694 2.43001 7.63847 2.43127 7.61584L2.4313 7.6153C2.4325 7.59365 2.43387 7.5687 2.43392 7.54189M18.5941 4.62565C18.5926 4.62507 18.5912 4.62449 18.5897 4.62391L18.6259 4.5307L18.5989 4.62699C18.5973 4.62654 18.5957 4.6261 18.5941 4.62565ZM2.43392 7.54189C2.4339 7.54234 2.43389 7.54279 2.43388 7.54325L2.33392 7.54043H2.43392C2.43392 7.54092 2.43392 7.5414 2.43392 7.54189ZM2.43392 7.54189C2.45121 6.92849 2.49206 6.30025 2.66699 5.77152C2.84033 5.24763 3.14205 4.83039 3.67851 4.62027M3.67851 4.62027C3.67692 4.62071 3.67534 4.62116 3.67375 4.6216L3.64675 4.52532L3.68297 4.61852C3.68148 4.6191 3.68 4.61968 3.67851 4.62027Z" fill="#5B5656" stroke="#5B5656" stroke-width="0.2"/>
</svg>
