<svg width="25" height="25" viewBox="0 0 25 25" fill="none" xmlns="http://www.w3.org/2000/svg">
<path d="M5.2395 19.96H7.7345C7.87173 19.96 7.984 19.8477 7.984 19.7105V5.2395C7.984 5.10227 7.87173 4.99 7.7345 4.99H5.2395C5.10227 4.99 4.99 5.10227 4.99 5.2395V19.7105C4.99 19.8477 5.10227 19.96 5.2395 19.96ZM11.2275 11.2275H13.7225C13.8597 11.2275 13.972 11.1152 13.972 10.978V5.2395C13.972 5.10227 13.8597 4.99 13.7225 4.99H11.2275C11.0903 4.99 10.978 5.10227 10.978 5.2395V10.978C10.978 11.1152 11.0903 11.2275 11.2275 11.2275ZM17.2155 13.473H19.7105C19.8477 13.473 19.96 13.3607 19.96 13.2235V5.2395C19.96 5.10227 19.8477 4.99 19.7105 4.99H17.2155C17.0783 4.99 16.966 5.10227 16.966 5.2395V13.2235C16.966 13.3607 17.0783 13.473 17.2155 13.473ZM23.952 0H0.998C0.445981 0 0 0.445981 0 0.998V23.952C0 24.504 0.445981 24.95 0.998 24.95H23.952C24.504 24.95 24.95 24.504 24.95 23.952V0.998C24.95 0.445981 24.504 0 23.952 0ZM22.7045 22.7045H2.2455V2.2455H22.7045V22.7045Z" fill="#5B5656"/>
</svg>
