                    <svg width="10" height="15" viewBox="0 0 10 15" fill="none" xmlns="http://www.w3.org/2000/svg">
                        <path fill-rule="evenodd" clip-rule="evenodd" d="M4.56225 0.016052C1.653 0.194923 0.13275 1.82304 0 4.76724H2.93475C2.9715 3.74738 3.5475 2.98496 4.62 2.87255C5.67275 2.76211 6.6715 3.00991 6.974 3.72119C7.30075 4.48955 6.56725 5.38242 6.2185 5.7572C5.573 6.45218 4.5245 6.95915 3.981 7.70897C3.44825 8.44372 3.3535 9.41046 3.3125 10.5936H5.899C5.93525 9.83714 5.98625 9.11251 6.3345 8.64236C6.901 7.87845 7.747 7.52046 8.456 6.91715C9.13325 6.34051 9.84575 5.64553 9.96675 4.56984C10.33 1.35042 7.67075 -0.175666 4.56225 0.016052Z" fill="#5B5656"/>
                        <path d="M4.62909 14.8235C5.53097 14.8235 6.26209 14.1119 6.26209 13.2342C6.26209 12.3564 5.53097 11.6448 4.62909 11.6448C3.72721 11.6448 2.99609 12.3564 2.99609 13.2342C2.99609 14.1119 3.72721 14.8235 4.62909 14.8235Z" fill="#5B5656"/>
                    </svg>