                    <svg width="21" height="21" viewBox="0 0 21 21" fill="none" xmlns="http://www.w3.org/2000/svg">
                        <path d="M10.5011 12.9487C11.932 12.9487 13.092 11.8024 13.092 10.3883C13.092 8.97422 11.932 7.82788 10.5011 7.82788C9.07015 7.82788 7.91016 8.97422 7.91016 10.3883C7.91016 11.8024 9.07015 12.9487 10.5011 12.9487Z" stroke="#5B5656" stroke-width="2" stroke-linecap="round" stroke-linejoin="round"/>
                        <path d="M16.8909 12.9487C16.7759 13.2061 16.7417 13.4916 16.7925 13.7685C16.8432 14.0454 16.9768 14.3008 17.1759 14.502L17.2277 14.5532C17.3883 14.7117 17.5157 14.9 17.6026 15.1072C17.6896 15.3144 17.7343 15.5365 17.7343 15.7609C17.7343 15.9852 17.6896 16.2073 17.6026 16.4145C17.5157 16.6217 17.3883 16.81 17.2277 16.9685C17.0673 17.1272 16.8768 17.2531 16.6671 17.339C16.4574 17.4249 16.2327 17.4692 16.0057 17.4692C15.7787 17.4692 15.5539 17.4249 15.3442 17.339C15.1346 17.2531 14.9441 17.1272 14.7836 16.9685L14.7318 16.9173C14.5283 16.7206 14.2698 16.5886 13.9896 16.5384C13.7094 16.4882 13.4205 16.5221 13.16 16.6357C12.9046 16.7439 12.6867 16.9235 12.5333 17.1525C12.3798 17.3815 12.2975 17.6498 12.2964 17.9244V18.0695C12.2964 18.5222 12.1144 18.9564 11.7905 19.2765C11.4665 19.5966 11.0272 19.7765 10.5691 19.7765C10.111 19.7765 9.67165 19.5966 9.34773 19.2765C9.0238 18.9564 8.84182 18.5222 8.84182 18.0695V17.9927C8.83513 17.7102 8.7426 17.4362 8.57626 17.2064C8.40992 16.9766 8.17745 16.8015 7.90909 16.704C7.6486 16.5903 7.35965 16.5565 7.07949 16.6067C6.79933 16.6569 6.54081 16.7888 6.33727 16.9856L6.28545 17.0368C6.12504 17.1955 5.93454 17.3214 5.72485 17.4073C5.51516 17.4932 5.2904 17.5374 5.06341 17.5374C4.83642 17.5374 4.61165 17.4932 4.40197 17.4073C4.19228 17.3214 4.00178 17.1955 3.84136 17.0368C3.68077 16.8783 3.55337 16.69 3.46644 16.4828C3.37952 16.2756 3.33478 16.0535 3.33478 15.8291C3.33478 15.6048 3.37952 15.3827 3.46644 15.1755C3.55337 14.9683 3.68077 14.78 3.84136 14.6215L3.89318 14.5703C4.09228 14.3691 4.22584 14.1136 4.27664 13.8368C4.32744 13.5599 4.29314 13.2744 4.17818 13.0169C4.0687 12.7645 3.88693 12.5492 3.65522 12.3976C3.42351 12.2459 3.152 12.1646 2.87409 12.1635H2.72727C2.26917 12.1635 1.82983 11.9836 1.50591 11.6635C1.18198 11.3434 1 10.9092 1 10.4565C1 10.0038 1.18198 9.56963 1.50591 9.24952C1.82983 8.9294 2.26917 8.74956 2.72727 8.74956H2.805C3.09086 8.74295 3.3681 8.65151 3.60067 8.48713C3.83324 8.32274 4.01039 8.09301 4.10909 7.82781C4.22405 7.57039 4.25835 7.28483 4.20755 7.00797C4.15675 6.7311 4.02319 6.47563 3.82409 6.27448L3.77227 6.22327C3.61168 6.06474 3.48428 5.87649 3.39735 5.66926C3.31043 5.46204 3.26569 5.23992 3.26569 5.0156C3.26569 4.79128 3.31043 4.56916 3.39735 4.36194C3.48428 4.15472 3.61168 3.96647 3.77227 3.80794C3.93269 3.64923 4.12319 3.52333 4.33288 3.43743C4.54256 3.35152 4.76733 3.30731 4.99432 3.30731C5.22131 3.30731 5.44607 3.35152 5.65576 3.43743C5.86545 3.52333 6.05595 3.64923 6.21636 3.80794L6.26818 3.85914C6.47172 4.0559 6.73024 4.18789 7.0104 4.23809C7.29056 4.28829 7.57951 4.2544 7.84 4.14079H7.90909C8.16453 4.0326 8.38238 3.85296 8.53583 3.62398C8.68927 3.395 8.77162 3.12668 8.77273 2.85204V2.70695C8.77273 2.25424 8.95471 1.82007 9.27863 1.49995C9.60256 1.17984 10.0419 1 10.5 1C10.9581 1 11.3974 1.17984 11.7214 1.49995C12.0453 1.82007 12.2273 2.25424 12.2273 2.70695V2.78376C12.2284 3.0584 12.3107 3.32673 12.4642 3.5557C12.6176 3.78468 12.8355 3.96432 13.0909 4.07251C13.3514 4.18612 13.6403 4.22001 13.9205 4.16981C14.2007 4.11961 14.4592 3.98762 14.6627 3.79087L14.7145 3.73966C14.875 3.58095 15.0655 3.45505 15.2751 3.36915C15.4848 3.28325 15.7096 3.23903 15.9366 3.23903C16.1636 3.23903 16.3883 3.28325 16.598 3.36915C16.8077 3.45505 16.9982 3.58095 17.1586 3.73966C17.3192 3.89819 17.4466 4.08644 17.5336 4.29367C17.6205 4.50089 17.6652 4.72301 17.6652 4.94733C17.6652 5.17165 17.6205 5.39377 17.5336 5.60099C17.4466 5.80821 17.3192 5.99646 17.1586 6.15499L17.1068 6.2062C16.9077 6.40735 16.7742 6.66283 16.7234 6.93969C16.6726 7.21655 16.7069 7.50211 16.8218 7.75953V7.82781C16.9313 8.08024 17.1131 8.29553 17.3448 8.44717C17.5765 8.59881 17.848 8.68019 18.1259 8.68128H18.2727C18.7308 8.68128 19.1702 8.86112 19.4941 9.18124C19.818 9.50135 20 9.93552 20 10.3882C20 10.8409 19.818 11.2751 19.4941 11.5952C19.1702 11.9153 18.7308 12.0952 18.2727 12.0952H18.195C17.9171 12.0963 17.6456 12.1777 17.4139 12.3293C17.1822 12.4809 17.0004 12.6962 16.8909 12.9487V12.9487Z" stroke="#5B5656" stroke-width="2" stroke-linecap="round" stroke-linejoin="round"/>
                    </svg>