<svg width="20" height="26" viewBox="0 0 20 26" fill="none" xmlns="http://www.w3.org/2000/svg">
<path d="M13.6086 2.77206V3.27206H14.1086H18.635C18.7658 3.27206 18.9784 3.4177 18.9784 3.72794V25.0441C18.9784 25.3544 18.7658 25.5 18.635 25.5H0.843426C0.712658 25.5 0.5 25.3544 0.5 25.0441V3.72794C0.5 3.4177 0.712658 3.27206 0.843426 3.27206H2.97542C3.10619 3.27206 3.31884 3.4177 3.31884 3.72794C3.31884 4.03818 3.10618 4.18382 2.97542 4.18382H1.68685H1.18685V4.68382V24.0882V24.5882H1.68685H17.7963H18.2963V24.0882V4.68382V4.18382H17.7963H13.2699C13.1391 4.18382 12.9265 4.03818 12.9265 3.72794V1.91176V1.41176H12.4265H7.06135H6.56135V1.91176V5.029V5.529H7.06135H11.4284C11.5592 5.529 11.7718 5.67464 11.7718 5.98489C11.7718 6.29513 11.5592 6.44077 11.4284 6.44077H6.21792C6.08715 6.44077 5.8745 6.29513 5.8745 5.98489V0.955882C5.8745 0.645643 6.08715 0.5 6.21792 0.5H13.2652C13.396 0.5 13.6086 0.645643 13.6086 0.955882V2.77206Z" fill="#5B5656" stroke="#5B5656"/>
</svg>
